<?xml version="1.0" encoding="UTF-8" standalone="no"?>
<svg width="84px" height="13px" viewBox="0 0 84 13" version="1.1" xmlns="http://www.w3.org/2000/svg" xmlns:xlink="http://www.w3.org/1999/xlink" xmlns:sketch="http://www.bohemiancoding.com/sketch/ns">
    <!-- Generator: Sketch 3.2.2 (9983) - http://www.bohemiancoding.com/sketch -->
    <title>icon_today</title>
    <desc>Created with Sketch.</desc>
    <defs></defs>
    <g id="Page-1" stroke="none" stroke-width="1" fill="none" fill-rule="evenodd" sketch:type="MSPage">
        <g id="icon_today" sketch:type="MSArtboardGroup" fill="#FFFFFF">
            <path d="M6.084,12.204 L6.084,2.448 L9.576,2.448 L9.576,0.198 L0,0.198 L0,2.448 L3.51,2.448 L3.51,12.204 L6.084,12.204 Z M16.47,12.42 C20.106,12.42 22.752,9.828 22.752,6.21 C22.752,2.592 20.106,0 16.47,0 C12.852,0 10.206,2.592 10.206,6.21 C10.206,9.828 12.852,12.42 16.47,12.42 L16.47,12.42 Z M16.47,10.152 C14.256,10.152 12.834,8.442 12.834,6.21 C12.834,3.96 14.256,2.268 16.47,2.268 C18.684,2.268 20.124,3.96 20.124,6.21 C20.124,8.442 18.684,10.152 16.47,10.152 L16.47,10.152 Z M29.286,12.204 C33.048,12.204 35.658,9.828 35.658,6.21 C35.658,2.592 33.048,0.198 29.286,0.198 L24.552,0.198 L24.552,12.204 L29.286,12.204 Z M29.286,9.954 L27.108,9.954 L27.108,2.448 L29.286,2.448 C31.752,2.448 33.048,4.086 33.048,6.21 C33.048,8.244 31.662,9.954 29.286,9.954 L29.286,9.954 Z M48.06,12.204 L43.434,0.198 L40.23,0.198 L35.586,12.204 L38.502,12.204 L39.258,10.17 L44.406,10.17 L45.144,12.204 L48.06,12.204 Z M43.704,7.92 L39.96,7.92 L41.832,2.754 L43.704,7.92 Z M53.874,12.204 L53.874,7.29 L58.464,0.198 L55.548,0.198 L52.596,5.022 L49.608,0.198 L46.692,0.198 L51.318,7.29 L51.318,12.204 L53.874,12.204 Z M59.076,12.402 C59.868,12.402 60.534,11.736 60.534,10.944 C60.534,10.152 59.868,9.486 59.076,9.486 C58.284,9.486 57.618,10.152 57.618,10.944 C57.618,11.736 58.284,12.402 59.076,12.402 L59.076,12.402 Z M72.846,12.204 L67.752,5.832 L72.522,0.198 L69.372,0.198 L65.124,5.562 L65.124,0.198 L62.568,0.198 L62.568,12.204 L65.124,12.204 L65.124,8.514 L66.06,7.398 L69.696,12.204 L72.846,12.204 Z M82.728,12.204 L82.728,9.954 L76.932,9.954 L82.602,2.25 L82.602,0.198 L73.584,0.198 L73.584,2.448 L79.254,2.448 L73.584,10.134 L73.584,12.204 L82.728,12.204 Z" id="TODAY.KZ" sketch:type="MSShapeGroup"></path>
        </g>
    </g>
</svg>