<?xml version="1.0" encoding="utf-8"?>
<!-- Generator: Adobe Illustrator 16.0.1, SVG Export Plug-In . SVG Version: 6.00 Build 0)  -->
<!DOCTYPE svg PUBLIC "-//W3C//DTD SVG 1.1//EN" "http://www.w3.org/Graphics/SVG/1.1/DTD/svg11.dtd">
<svg version="1.1" id="Слой_1" xmlns="http://www.w3.org/2000/svg" xmlns:xlink="http://www.w3.org/1999/xlink" x="0px" y="0px"
	 width="244px" height="65px" viewBox="0 0 244 65" enable-background="new 0 0 244 65" xml:space="preserve">
<polygon fill="#C60010" points="33,20 13,20 13,26 20,26 20,45 26,45 26,26 33,26 "/>
<polygon fill="#C60010" points="81,20 61,20 61,26 68,26 68,45 74,45 74,26 81,26 "/>
<path fill="#C60010" d="M47.09,20c-7.18,0-13,5.82-13,13s5.82,13,13,13s13-5.82,13-13S54.27,20,47.09,20z M47.09,40
	C43.224,40,40,36.865,40,33c0-3.866,3.224-7,7.09-7S54,29.134,54,33C54,36.865,50.956,40,47.09,40z"/>
<path fill="#C60010" d="M93,20h-3L79,45h5l2-3h10l2,3h6L93,20z M88,37l3-7h1l3,7H88z"/>
<polygon fill="#C60010" points="114,39 114,20 108,20 108,45 112,45 114,45 123,45 123,39 "/>
<polygon fill="#C60010" points="197,32 204,20 197,20 192,29 189,29 189,20 183,20 183,45 189,45 189,35 192,35 198,45 205,45 "/>
<polygon fill="#C60010" points="209,20 209,26 219,26 208,45 228,45 228,39 218,39 229,20 "/>
<path fill="#3F3F3F" d="M152.5,8C138.969,8,128,18.969,128,32.5c0,13.531,10.969,24.5,24.5,24.5S177,46.031,177,32.5
	C177,18.969,166.031,8,152.5,8z M151,45h-4V30h-7v-4h11V45z M164,45h-11V26h4v15h7V45z M164,24h-24v-4h24V24z"/>
<g>
</g>
<g>
</g>
<g>
</g>
<g>
</g>
<g>
</g>
<g>
</g>
<g>
</g>
<g>
</g>
<g>
</g>
<g>
</g>
<g>
</g>
<g>
</g>
<g>
</g>
<g>
</g>
<g>
</g>
</svg>
